<?xml version="1.0" encoding="UTF-8"?>
<svg version="1.1" xmlns="http://www.w3.org/2000/svg" width="512" height="512">
<path d="M0 0 C2.96858157 2.20740681 3.82865791 3.48597373 5 7 C5.08266486 8.91906917 5.10740663 10.84089474 5.09765625 12.76171875 C5.09443359 13.87998047 5.09121094 14.99824219 5.08789062 16.15039062 C5.07951172 17.31763672 5.07113281 18.48488281 5.0625 19.6875 C5.05798828 20.86634766 5.05347656 22.04519531 5.04882812 23.25976562 C5.03703273 26.17322789 5.0205727 29.08658863 5 32 C6.75376953 31.94779297 6.75376953 31.94779297 8.54296875 31.89453125 C10.09113141 31.86638284 11.63930968 31.83908381 13.1875 31.8125 C13.95642578 31.78736328 14.72535156 31.76222656 15.51757812 31.73632812 C20.21693236 31.67582142 23.15117047 32.00646592 27 35 C29 37 29 37 29.375 40.875 C29.29630146 43.97234974 29.1230443 44.82861687 27.25 47.4375 C20.65124633 52.01996782 12.95330155 50 5 50 C5 67.16 5 84.32 5 102 C6.98 102.66 8.96 103.32 11 104 C12.6037274 104.80210884 14.18428574 105.65221411 15.73828125 106.546875 C16.62757324 107.05468506 17.51686523 107.56249512 18.43310547 108.08569336 C19.38330566 108.63491455 20.33350586 109.18413574 21.3125 109.75 C23.38379985 110.93414446 25.45542565 112.11771889 27.52734375 113.30078125 C28.59581543 113.91260254 29.66428711 114.52442383 30.76513672 115.15478516 C35.95127426 118.11303629 41.16291426 121.02528662 46.375 123.9375 C48.47397896 125.11194231 50.57293717 126.28642168 52.671875 127.4609375 C54.78121711 128.64068381 56.89059215 129.82037124 59 131 C72.1170985 138.33537927 85.23140005 145.6748968 98.3034668 153.09033203 C103.4256266 155.9928745 108.56096054 158.86895577 113.71484375 161.71484375 C114.83632813 162.33617187 115.9578125 162.9575 117.11328125 163.59765625 C119.26548369 164.78882822 121.42027606 165.97533765 123.578125 167.15625 C139.28867732 175.86603195 139.28867732 175.86603195 141.1875 181.5625 C140.97452037 185.46712655 140.64007047 187.11242293 138 190 C134.85056062 191.38876033 132.39671134 192.38780669 128.97851562 191.4387207 C126.83229671 190.47541898 124.79939912 189.40469876 122.75 188.25 C122.04359375 187.87617188 121.3371875 187.50234375 120.609375 187.1171875 C117.63173609 185.52685763 114.81232431 183.87488287 112 182 C112 202.79 112 223.58 112 245 C116.310625 247.371875 120.62125 249.74375 125.0625 252.1875 C135.25199866 257.80307898 145.41353826 263.46353188 155.53344727 269.20385742 C162.50872026 273.16039167 169.50044948 277.08658556 176.5 281 C185.45226659 286.0064743 194.38993967 291.03784452 203.31396484 296.09448242 C208.37927629 298.96220784 213.45295062 301.81383658 218.5390625 304.64453125 C249.10517879 321.65776819 249.10517879 321.65776819 252 326 C252.65753425 332.90410959 252.65753425 332.90410959 250.5 336.5 C248 338 248 338 240 338 C234.72 335.03 229.44 332.06 224 329 C223.67 386.75 223.34 444.5 223 504 C73.18 504 -76.64 504 -231 504 C-231.33 446.25 -231.66 388.5 -232 329 C-237.28 331.97 -242.56 334.94 -248 338 C-256 338 -256 338 -258.5 336.5 C-260.18959029 333.68401619 -260.5184812 331.36493864 -260.62890625 328.09765625 C-258.60036166 321.33164105 -250.44754195 318.17756497 -244.75 315.0625 C-243.74001953 314.50111328 -242.73003906 313.93972656 -241.68945312 313.36132812 C-239.54804281 312.17136289 -237.40476595 310.98475126 -235.25976562 309.80126953 C-229.99327978 306.89113378 -224.74809681 303.94312284 -219.5 301 C-217.39585323 299.82288111 -215.2916866 298.64579771 -213.1875 297.46875 C-207.28250801 294.16195449 -201.38956531 290.8341754 -195.5 287.5 C-187.51221966 282.97799212 -179.51121139 278.48036476 -171.5 274 C-162.4240659 268.9239884 -153.36156402 263.82493506 -144.3125 258.70117188 C-136.2172776 254.11793694 -128.10809152 249.56080148 -120 245 C-120 224.21 -120 203.42 -120 182 C-127.92 186.455 -127.92 186.455 -136 191 C-140.9297526 192.23243815 -142.60127483 191.36227833 -147 189 C-149.22898161 186.39952145 -148.99940603 184.96673784 -148.9375 181.5 C-147.61944977 176.57927914 -144.73016303 175.06194464 -140.50244141 172.46704102 C-139.62765137 171.98420654 -138.75286133 171.50137207 -137.8515625 171.00390625 C-136.85833984 170.4521875 -135.86511719 169.90046875 -134.84179688 169.33203125 C-133.78025391 168.74808594 -132.71871094 168.16414062 -131.625 167.5625 C-129.35651783 166.30384129 -127.08829409 165.04471672 -124.8203125 163.78515625 C-123.67594727 163.15109863 -122.53158203 162.51704102 -121.35253906 161.86376953 C-116.38631034 159.10290512 -111.44267368 156.30274712 -106.5 153.5 C-97.46099644 148.38195065 -88.4018529 143.30066588 -79.3359375 138.23046875 C-71.44404969 133.81453649 -63.5688356 129.36977748 -55.69921875 124.91430664 C-47.25899065 120.13895283 -38.79901533 115.39919518 -30.33398438 110.66796875 C-29.34720703 110.11625 -28.36042969 109.56453125 -27.34375 108.99609375 C-26.41949219 108.48030762 -25.49523437 107.96452148 -24.54296875 107.43310547 C-22.31588735 106.17802023 -20.10991179 104.89315948 -17.90625 103.59765625 C-15 102 -15 102 -13 102 C-13 84.84 -13 67.68 -13 50 C-18.28 50 -23.56 50 -29 50 C-35.47321429 47.41071429 -35.47321429 47.41071429 -37 45 C-37.77333333 38.04 -37.77333333 38.04 -35.1875 34.5625 C-32.11202132 32.36572952 -29.67020939 31.87466008 -25.98828125 31.90234375 C-24.85229492 31.90717773 -24.85229492 31.90717773 -23.69335938 31.91210938 C-22.90767578 31.92048828 -22.12199219 31.92886719 -21.3125 31.9375 C-20.51521484 31.94201172 -19.71792969 31.94652344 -18.89648438 31.95117188 C-16.93095743 31.9629415 -14.96546915 31.98087652 -13 32 C-13.01047363 31.26885986 -13.02094727 30.53771973 -13.03173828 29.78442383 C-13.07340289 26.46048441 -13.09935956 23.13660005 -13.125 19.8125 C-13.14175781 18.66201172 -13.15851563 17.51152344 -13.17578125 16.32617188 C-13.18222656 15.21435547 -13.18867188 14.10253906 -13.1953125 12.95703125 C-13.20578613 11.93585205 -13.21625977 10.91467285 -13.22705078 9.86254883 C-12.98504135 6.8114084 -12.41353455 4.70932349 -11 2 C-7.32807887 -0.44794742 -4.26893972 -0.71435887 0 0 Z " fill="#FECA61" transform="translate(260,4)"/>
<path d="M0 0 C2.96858157 2.20740681 3.82865791 3.48597373 5 7 C5.08266486 8.91906917 5.10740663 10.84089474 5.09765625 12.76171875 C5.09443359 13.87998047 5.09121094 14.99824219 5.08789062 16.15039062 C5.07951172 17.31763672 5.07113281 18.48488281 5.0625 19.6875 C5.05798828 20.86634766 5.05347656 22.04519531 5.04882812 23.25976562 C5.03703273 26.17322789 5.0205727 29.08658863 5 32 C6.16917969 31.96519531 7.33835937 31.93039063 8.54296875 31.89453125 C10.09113141 31.86638284 11.63930968 31.83908381 13.1875 31.8125 C13.95642578 31.78736328 14.72535156 31.76222656 15.51757812 31.73632812 C20.21693236 31.67582142 23.15117047 32.00646592 27 35 C29 37 29 37 29.375 40.875 C29.29630146 43.97234974 29.1230443 44.82861687 27.25 47.4375 C20.65124633 52.01996782 12.95330155 50 5 50 C5 67.16 5 84.32 5 102 C7.97 102.99 7.97 102.99 11 104 C12.6037274 104.80210884 14.18428574 105.65221411 15.73828125 106.546875 C16.62757324 107.05468506 17.51686523 107.56249512 18.43310547 108.08569336 C19.38330566 108.63491455 20.33350586 109.18413574 21.3125 109.75 C23.38379985 110.93414446 25.45542565 112.11771889 27.52734375 113.30078125 C28.59581543 113.91260254 29.66428711 114.52442383 30.76513672 115.15478516 C35.95127426 118.11303629 41.16291426 121.02528662 46.375 123.9375 C48.47397896 125.11194231 50.57293717 126.28642168 52.671875 127.4609375 C54.78121711 128.64068381 56.89059215 129.82037124 59 131 C72.1170985 138.33537927 85.23140005 145.6748968 98.3034668 153.09033203 C103.4256266 155.9928745 108.56096054 158.86895577 113.71484375 161.71484375 C114.83632813 162.33617187 115.9578125 162.9575 117.11328125 163.59765625 C119.26548369 164.78882822 121.42027606 165.97533765 123.578125 167.15625 C139.28867732 175.86603195 139.28867732 175.86603195 141.1875 181.5625 C140.97452037 185.46712655 140.64007047 187.11242293 138 190 C134.85056062 191.38876033 132.39671134 192.38780669 128.97851562 191.4387207 C126.83229671 190.47541898 124.79939912 189.40469876 122.75 188.25 C122.04359375 187.87617188 121.3371875 187.50234375 120.609375 187.1171875 C117.63173609 185.52685763 114.81232431 183.87488287 112 182 C112 202.79 112 223.58 112 245 C116.310625 247.371875 120.62125 249.74375 125.0625 252.1875 C135.25199866 257.80307898 145.41353826 263.46353188 155.53344727 269.20385742 C162.50872026 273.16039167 169.50044948 277.08658556 176.5 281 C185.45226659 286.0064743 194.38993967 291.03784452 203.31396484 296.09448242 C208.37927629 298.96220784 213.45295062 301.81383658 218.5390625 304.64453125 C249.10517879 321.65776819 249.10517879 321.65776819 252 326 C252.65753425 332.90410959 252.65753425 332.90410959 250.5 336.5 C248 338 248 338 240 338 C234.72 335.03 229.44 332.06 224 329 C223.67 386.75 223.34 444.5 223 504 C175.15 504 127.3 504 78 504 C77.67 391.14 77.34 278.28 77 162 C60.40673585 152.50482108 60.40673585 152.50482108 43.75 143.125 C41.6510226 141.95185703 39.55206489 140.77867882 37.453125 139.60546875 C36.39931641 139.01685059 35.34550781 138.42823242 34.25976562 137.82177734 C27.63972623 134.12205191 21.02504446 130.41275003 14.40917969 126.70556641 C12.49593722 125.63393458 10.57973493 124.56756439 8.66015625 123.50732422 C6.91504937 122.51849439 5.19192531 121.48959557 3.49609375 120.41845703 C2.33787109 119.70278564 2.33787109 119.70278564 1.15625 118.97265625 C0.49431641 118.543479 -0.16761719 118.11430176 -0.84960938 117.67211914 C-4.87935435 116.41259508 -8.19838045 118.59908518 -11.79467773 120.39770508 C-13.22469116 121.20050903 -13.22469116 121.20050903 -14.68359375 122.01953125 C-15.76398926 122.62289307 -16.84438477 123.22625488 -17.95751953 123.84790039 C-19.10591309 124.49621826 -20.25430664 125.14453613 -21.4375 125.8125 C-22.64934442 126.49186981 -23.86142471 127.17081901 -25.07373047 127.84936523 C-28.71984949 129.89245541 -32.36039759 131.9453298 -36 134 C-37.02528809 134.57814453 -38.05057617 135.15628906 -39.10693359 135.75195312 C-43.82662415 138.41446472 -48.54311852 141.08255877 -53.2578125 143.75390625 C-59.3271338 147.18970621 -65.41286874 150.5958824 -71.5 154 C-75.66711469 156.33253385 -79.83366715 158.66606997 -84 161 C-85.54977539 161.8677002 -85.54977539 161.8677002 -87.13085938 162.75292969 C-97.15018542 168.36791385 -107.12800272 173.99179437 -116.8671875 180.08203125 C-120.72397476 182.44323143 -124.63052746 184.70429873 -128.5625 186.9375 C-129.2423999 187.32776367 -129.9222998 187.71802734 -130.62280273 188.12011719 C-136.55645074 191.46221965 -136.55645074 191.46221965 -140 192 C-146.15753425 189.98287671 -146.15753425 189.98287671 -148.5 187.25 C-149.26121155 183.82454803 -148.90581342 181.38170343 -148 178 C-144.87221808 175.15932402 -141.54032667 173.0398948 -137.8515625 171.00390625 C-136.85833984 170.4521875 -135.86511719 169.90046875 -134.84179688 169.33203125 C-133.78025391 168.74808594 -132.71871094 168.16414062 -131.625 167.5625 C-129.35651783 166.30384129 -127.08829409 165.04471672 -124.8203125 163.78515625 C-123.67594727 163.15109863 -122.53158203 162.51704102 -121.35253906 161.86376953 C-116.38631034 159.10290512 -111.44267368 156.30274712 -106.5 153.5 C-97.46099644 148.38195065 -88.4018529 143.30066588 -79.3359375 138.23046875 C-71.44404969 133.81453649 -63.5688356 129.36977748 -55.69921875 124.91430664 C-47.25899065 120.13895283 -38.79901533 115.39919518 -30.33398438 110.66796875 C-29.34720703 110.11625 -28.36042969 109.56453125 -27.34375 108.99609375 C-26.41949219 108.48030762 -25.49523437 107.96452148 -24.54296875 107.43310547 C-22.31588735 106.17802023 -20.10991179 104.89315948 -17.90625 103.59765625 C-15 102 -15 102 -13 102 C-13 84.84 -13 67.68 -13 50 C-18.28 50 -23.56 50 -29 50 C-35.47321429 47.41071429 -35.47321429 47.41071429 -37 45 C-37.77333333 38.04 -37.77333333 38.04 -35.1875 34.5625 C-32.11202132 32.36572952 -29.67020939 31.87466008 -25.98828125 31.90234375 C-24.85229492 31.90717773 -24.85229492 31.90717773 -23.69335938 31.91210938 C-22.90767578 31.92048828 -22.12199219 31.92886719 -21.3125 31.9375 C-20.51521484 31.94201172 -19.71792969 31.94652344 -18.89648438 31.95117188 C-16.93095743 31.9629415 -14.96546915 31.98087652 -13 32 C-13.01047363 31.26885986 -13.02094727 30.53771973 -13.03173828 29.78442383 C-13.07340289 26.46048441 -13.09935956 23.13660005 -13.125 19.8125 C-13.14175781 18.66201172 -13.15851563 17.51152344 -13.17578125 16.32617188 C-13.18222656 15.21435547 -13.18867188 14.10253906 -13.1953125 12.95703125 C-13.20578613 11.93585205 -13.21625977 10.91467285 -13.22705078 9.86254883 C-12.98504135 6.8114084 -12.41353455 4.70932349 -11 2 C-7.32807887 -0.44794742 -4.26893972 -0.71435887 0 0 Z " fill="#E7A34D" transform="translate(260,4)"/>
<path d="M0 0 C3.62686906 1.45074763 6.71655003 2.86680639 10.078125 4.765625 C11.06119629 5.31871338 12.04426758 5.87180176 13.05712891 6.44165039 C14.6376001 7.33678345 14.6376001 7.33678345 16.25 8.25 C18.51296541 9.52483798 20.77598783 10.79957475 23.0390625 12.07421875 C24.2073776 12.73352429 25.37567185 13.39286677 26.54394531 14.05224609 C30.86404236 16.48695465 35.19189593 18.90762093 39.52050781 21.32714844 C49.4649629 26.88590801 59.39119907 32.47609206 69.30566406 38.08813477 C78.67519385 43.38863473 88.06649701 48.65005746 97.4609375 53.90625 C98.39389648 54.42960937 99.32685547 54.95296875 100.28808594 55.4921875 C102.08125715 56.48918294 103.88136315 57.47381673 105.68847656 58.4453125 C106.50541992 58.88617188 107.32236328 59.32703125 108.1640625 59.78125 C108.88287598 60.16345703 109.60168945 60.54566406 110.34228516 60.93945312 C112 62 112 62 113 64 C113.09270995 65.60920909 113.12192313 67.22226034 113.12025452 68.83413696 C113.12231651 70.36542992 113.12231651 70.36542992 113.12442017 71.92765808 C113.11902725 73.6140313 113.11902725 73.6140313 113.11352539 75.33447266 C113.11367142 76.51494675 113.11381744 77.69542084 113.1139679 78.91166687 C113.11338959 82.15319775 113.10836583 85.39468575 113.10139394 88.63620806 C113.09515306 92.02214911 113.09455602 95.40809095 113.09336853 98.79403687 C113.09025739 105.2078101 113.08204691 111.62156634 113.07201904 118.03533208 C113.05975616 126.0521973 113.05427372 134.06906525 113.04882812 142.0859375 C113.03908138 156.39063825 113.01905035 170.6953019 113 185 C75.71 185 38.42 185 0 185 C0 123.95 0 62.9 0 0 Z " fill="#FEEAC1" transform="translate(370,268)"/>
<path d="M0 0 C12.43737936 8.71537842 19.93626512 19.84752445 23.0625 34.75 C23.43537852 38.57199502 23.444536 42.35052756 23.40307617 46.18823242 C23.40373329 47.81461136 23.40373329 47.81461136 23.40440369 49.47384644 C23.40233228 53.01791092 23.37907919 56.56148804 23.35546875 60.10546875 C23.34986694 62.57839194 23.34559961 65.05131849 23.34260559 67.52424622 C23.33120297 74.00315698 23.30177532 80.48186297 23.26849365 86.96069336 C23.23226954 94.75019218 23.21860981 102.53976383 23.20113373 110.32932281 C23.17213528 122.13635722 23.1146155 133.94294313 23.0625 145.75 C-9.2775 145.75 -41.6175 145.75 -74.9375 145.75 C-75.09793524 118.56959687 -75.09793524 118.56959687 -75.1328125 106.92773438 C-75.15666563 99.00340279 -75.18479599 91.07922437 -75.23925781 83.1550293 C-75.28291896 76.76186785 -75.30668 70.36890603 -75.31700897 63.97560692 C-75.32436401 61.54411874 -75.33872614 59.1126407 -75.36042023 56.68123817 C-75.52541774 37.41153949 -74.46119495 21.86369959 -60.6875 7 C-43.68628554 -8.71952645 -20.0513117 -12.15315286 0 0 Z " fill="#A86B5A" transform="translate(281.9375,362.25)"/>
<path d="M0 0 C0 54.78 0 109.56 0 166 C-26.4 166 -52.8 166 -80 166 C-80.12049101 135.88171133 -80.12049101 135.88171133 -80.1507616 121.03724575 C-80.16740541 112.99914188 -80.18855712 104.96113109 -80.22631836 96.9230957 C-80.25619456 90.56048084 -80.27556875 84.19793611 -80.28226548 77.83525306 C-80.28618081 74.46537935 -80.29539986 71.09570631 -80.31719017 67.72589684 C-80.33886214 63.96647452 -80.34197116 60.20747244 -80.34057617 56.44799805 C-80.351362 55.32734451 -80.36214783 54.20669098 -80.3732605 53.05207825 C-80.36913651 52.02984161 -80.36501251 51.00760498 -80.36076355 49.95439148 C-80.36352893 49.06486125 -80.36629431 48.17533102 -80.36914349 47.25884533 C-79.92019607 44.51166755 -79.15708897 43.70015271 -77 42 C-75.25601709 40.92341309 -73.4773893 39.90223699 -71.6796875 38.91796875 C-70.59977539 38.32290527 -69.51986328 37.7278418 -68.40722656 37.11474609 C-67.83234497 36.80108093 -67.25746338 36.48741577 -66.66516113 36.16424561 C-64.84683857 35.1721346 -63.03189542 34.17408556 -61.21777344 33.17431641 C-58.70761781 31.79113921 -56.19641251 30.40989686 -53.68457031 29.02978516 C-48.19020123 26.0071469 -42.71975292 22.9418958 -37.25 19.875 C-35.73466675 19.02723999 -35.73466675 19.02723999 -34.1887207 18.16235352 C-28.91194312 15.20717234 -23.6467568 12.23299427 -18.39453125 9.234375 C-17.33137695 8.62867676 -16.26822266 8.02297852 -15.17285156 7.39892578 C-13.14010811 6.23959188 -11.1094139 5.07665551 -9.08105469 3.90966797 C-8.1790332 3.39549316 -7.27701172 2.88131836 -6.34765625 2.3515625 C-5.55367432 1.89604004 -4.75969238 1.44051758 -3.94165039 0.97119141 C-2 0 -2 0 0 0 Z " fill="#FEEAC1" transform="translate(109,287)"/>
<path d="M0 0 C2.96858157 2.20740681 3.82865791 3.48597373 5 7 C5.08266486 8.91906917 5.10740663 10.84089474 5.09765625 12.76171875 C5.09443359 13.87998047 5.09121094 14.99824219 5.08789062 16.15039062 C5.07951172 17.31763672 5.07113281 18.48488281 5.0625 19.6875 C5.05798828 20.86634766 5.05347656 22.04519531 5.04882812 23.25976562 C5.03703273 26.17322789 5.0205727 29.08658863 5 32 C6.16917969 31.96519531 7.33835937 31.93039063 8.54296875 31.89453125 C10.09113141 31.86638284 11.63930968 31.83908381 13.1875 31.8125 C13.95642578 31.78736328 14.72535156 31.76222656 15.51757812 31.73632812 C20.21693236 31.67582142 23.15117047 32.00646592 27 35 C29 37 29 37 29.375 40.875 C29.29630146 43.97234974 29.1230443 44.82861687 27.25 47.4375 C20.65124633 52.01996782 12.95330155 50 5 50 C5 67.16 5 84.32 5 102 C7.97 102.99 7.97 102.99 11 104 C12.6037274 104.80210884 14.18428574 105.65221411 15.73828125 106.546875 C16.62757324 107.05468506 17.51686523 107.56249512 18.43310547 108.08569336 C19.38330566 108.63491455 20.33350586 109.18413574 21.3125 109.75 C23.38379985 110.93414446 25.45542565 112.11771889 27.52734375 113.30078125 C28.59581543 113.91260254 29.66428711 114.52442383 30.76513672 115.15478516 C35.95127426 118.11303629 41.16291426 121.02528662 46.375 123.9375 C48.47397896 125.11194231 50.57293717 126.28642168 52.671875 127.4609375 C54.78121711 128.64068381 56.89059215 129.82037124 59 131 C72.1170985 138.33537927 85.23140005 145.6748968 98.3034668 153.09033203 C103.4256266 155.9928745 108.56096054 158.86895577 113.71484375 161.71484375 C114.83632813 162.33617187 115.9578125 162.9575 117.11328125 163.59765625 C119.26548369 164.78882822 121.42027606 165.97533765 123.578125 167.15625 C139.28867732 175.86603195 139.28867732 175.86603195 141.1875 181.5625 C140.97452037 185.46712655 140.64007047 187.11242293 138 190 C134.93362425 191.31960947 132.44661182 192.36743791 129.10742188 191.51928711 C127.08143445 190.63850206 125.17732598 189.64187843 123.25 188.5625 C122.610625 188.23056641 121.97125 187.89863281 121.3125 187.55664062 C117.31777395 185.43739127 113.5125261 183.0715972 109.7109375 180.625 C104.0567046 176.99118049 98.25524969 173.6892488 92.375 170.4375 C90.16662693 169.20840474 87.95829476 167.97923597 85.75 166.75 C84.63109375 166.12867188 83.5121875 165.50734375 82.359375 164.8671875 C77.02479391 161.90215289 71.69976392 158.92011835 66.375 155.9375 C65.33972168 155.35798584 64.30444336 154.77847168 63.23779297 154.18139648 C55.37801655 149.77925758 47.53409434 145.34952869 39.69433594 140.91186523 C29.3821475 135.07808747 19.06667459 129.24620291 8.69238281 123.5234375 C6.93341303 122.52815536 5.19637851 121.49277836 3.48730469 120.4140625 C2.71547852 119.93710938 1.94365234 119.46015625 1.1484375 118.96875 C0.48763184 118.54013672 -0.17317383 118.11152344 -0.85400391 117.66992188 C-4.88034304 116.41300782 -8.20193509 118.60086297 -11.79467773 120.39770508 C-13.22469116 121.20050903 -13.22469116 121.20050903 -14.68359375 122.01953125 C-15.76398926 122.62289307 -16.84438477 123.22625488 -17.95751953 123.84790039 C-19.10591309 124.49621826 -20.25430664 125.14453613 -21.4375 125.8125 C-22.64934442 126.49186981 -23.86142471 127.17081901 -25.07373047 127.84936523 C-28.71984949 129.89245541 -32.36039759 131.9453298 -36 134 C-37.02528809 134.57814453 -38.05057617 135.15628906 -39.10693359 135.75195312 C-43.82662415 138.41446472 -48.54311852 141.08255877 -53.2578125 143.75390625 C-59.3271338 147.18970621 -65.41286874 150.5958824 -71.5 154 C-75.66711469 156.33253385 -79.83366715 158.66606997 -84 161 C-85.54977539 161.8677002 -85.54977539 161.8677002 -87.13085938 162.75292969 C-97.15018542 168.36791385 -107.12800272 173.99179437 -116.8671875 180.08203125 C-120.72397476 182.44323143 -124.63052746 184.70429873 -128.5625 186.9375 C-129.2423999 187.32776367 -129.9222998 187.71802734 -130.62280273 188.12011719 C-136.55645074 191.46221965 -136.55645074 191.46221965 -140 192 C-146.15753425 189.98287671 -146.15753425 189.98287671 -148.5 187.25 C-149.26121155 183.82454803 -148.90581342 181.38170343 -148 178 C-144.87221808 175.15932402 -141.54032667 173.0398948 -137.8515625 171.00390625 C-136.85833984 170.4521875 -135.86511719 169.90046875 -134.84179688 169.33203125 C-133.78025391 168.74808594 -132.71871094 168.16414062 -131.625 167.5625 C-129.35651783 166.30384129 -127.08829409 165.04471672 -124.8203125 163.78515625 C-123.67594727 163.15109863 -122.53158203 162.51704102 -121.35253906 161.86376953 C-116.38631034 159.10290512 -111.44267368 156.30274712 -106.5 153.5 C-97.46099644 148.38195065 -88.4018529 143.30066588 -79.3359375 138.23046875 C-71.44404969 133.81453649 -63.5688356 129.36977748 -55.69921875 124.91430664 C-47.25899065 120.13895283 -38.79901533 115.39919518 -30.33398438 110.66796875 C-29.34720703 110.11625 -28.36042969 109.56453125 -27.34375 108.99609375 C-26.41949219 108.48030762 -25.49523437 107.96452148 -24.54296875 107.43310547 C-22.31588735 106.17802023 -20.10991179 104.89315948 -17.90625 103.59765625 C-15 102 -15 102 -13 102 C-13 84.84 -13 67.68 -13 50 C-18.28 50 -23.56 50 -29 50 C-35.47321429 47.41071429 -35.47321429 47.41071429 -37 45 C-37.77333333 38.04 -37.77333333 38.04 -35.1875 34.5625 C-32.11202132 32.36572952 -29.67020939 31.87466008 -25.98828125 31.90234375 C-24.85229492 31.90717773 -24.85229492 31.90717773 -23.69335938 31.91210938 C-22.90767578 31.92048828 -22.12199219 31.92886719 -21.3125 31.9375 C-20.51521484 31.94201172 -19.71792969 31.94652344 -18.89648438 31.95117188 C-16.93095743 31.9629415 -14.96546915 31.98087652 -13 32 C-13.01047363 31.26885986 -13.02094727 30.53771973 -13.03173828 29.78442383 C-13.07340289 26.46048441 -13.09935956 23.13660005 -13.125 19.8125 C-13.14175781 18.66201172 -13.15851563 17.51152344 -13.17578125 16.32617188 C-13.18222656 15.21435547 -13.18867188 14.10253906 -13.1953125 12.95703125 C-13.20578613 11.93585205 -13.21625977 10.91467285 -13.22705078 9.86254883 C-12.98504135 6.8114084 -12.41353455 4.70932349 -11 2 C-7.32807887 -0.44794742 -4.26893972 -0.71435887 0 0 Z " fill="#DF3333" transform="translate(260,4)"/>
<path d="M0 0 C14.64305202 0 24.40931946 3.64208174 35.25 13.6875 C45.63528582 24.73386151 49.5011645 37.57346648 49.34057617 52.43823242 C49.34123329 54.06461136 49.34123329 54.06461136 49.34190369 55.72384644 C49.33983228 59.26791092 49.31657919 62.81148804 49.29296875 66.35546875 C49.28736694 68.82839194 49.28309961 71.30131849 49.28010559 73.77424622 C49.26870297 80.25315698 49.23927532 86.73186297 49.20599365 93.21069336 C49.16976954 101.00019218 49.15610981 108.78976383 49.13863373 116.57932281 C49.10963528 128.38635722 49.0521155 140.19294313 49 152 C32.83 152 16.66 152 0 152 C0 101.84 0 51.68 0 0 Z " fill="#924630" transform="translate(256,356)"/>
<path d="M0 0 C37.29 0 74.58 0 113 0 C113 18.15 113 36.3 113 55 C75.71 55 38.42 55 0 55 C0 36.85 0 18.7 0 0 Z " fill="#A96C5A" transform="translate(29,453)"/>
<path d="M0 0 C37.29 0 74.58 0 113 0 C113 17.82 113 35.64 113 54 C75.71 54 38.42 54 0 54 C0 36.18 0 18.36 0 0 Z " fill="#A86B59" transform="translate(370,454)"/>
<path d="M0 0 C0 60.72 0 121.44 0 184 C-10.89 184 -21.78 184 -33 184 C-33.33 128.89 -33.66 73.78 -34 17 C-26.08 12.71 -18.16 8.42 -10 4 C-3 0 -3 0 0 0 Z " fill="#FEDA91" transform="translate(142,269)"/>
<path d="M0 0 C18.54310345 9.88965517 18.54310345 9.88965517 24.875 13.375 C26.04869141 14.01115234 26.04869141 14.01115234 27.24609375 14.66015625 C27.98730469 15.06878906 28.72851562 15.47742188 29.4921875 15.8984375 C30.14558105 16.25599121 30.79897461 16.61354492 31.47216797 16.98193359 C33 18 33 18 34 20 C34.09270995 21.60920909 34.12192313 23.22226034 34.12025452 24.83413696 C34.12162918 25.85499893 34.12300385 26.8758609 34.12442017 27.92765808 C34.11902725 29.6140313 34.11902725 29.6140313 34.11352539 31.33447266 C34.11367142 32.51494675 34.11381744 33.69542084 34.1139679 34.91166687 C34.11338959 38.15319775 34.10836583 41.39468575 34.10139394 44.63620806 C34.09515306 48.02214911 34.09455602 51.40809095 34.09336853 54.79403687 C34.09025739 61.2078101 34.08204691 67.62156634 34.07201904 74.03533208 C34.06085119 81.33632547 34.05534576 88.63731965 34.05032361 95.93831944 C34.03986412 110.95889066 34.02152132 125.9794398 34 141 C22.78 141 11.56 141 0 141 C0 94.47 0 47.94 0 0 Z " fill="#FEDB92" transform="translate(449,312)"/>
<path d="M0 0 C5.32992632 4.47713811 8.93171621 10.29514862 11.125 16.875 C11.94696627 28.53517867 12.0601373 37.77270181 4.2578125 47.109375 C-2.02596239 53.80880815 -8.10487749 57.54235436 -17.3984375 58.078125 C-28.78318884 58.21668181 -35.77042642 56.39818562 -44.5 48.5 C-52.12140638 40.07634032 -53.52703099 32.08036241 -53.2578125 21.08984375 C-52.91494188 15.54347987 -51.04850368 11.39724275 -47.875 6.875 C-47.153125 5.8025 -46.43125 4.73 -45.6875 3.625 C-32.74359852 -9.03125922 -14.87683321 -10.6298994 0 0 Z " fill="#FFFEFD" transform="translate(276.875,207.125)"/>
<path d="M0 0 C4.03063793 1.24436049 7.57946042 2.72065563 11.24609375 4.80078125 C12.23609375 5.35894531 13.22609375 5.91710937 14.24609375 6.4921875 C15.29925781 7.09289062 16.35242188 7.69359375 17.4375 8.3125 C18.54351562 8.93769531 19.64953125 9.56289063 20.7890625 10.20703125 C24.19530363 12.13348005 27.59771379 14.06657729 31 16 C33.89970607 17.64092623 36.80049547 19.2799232 39.70141602 20.91870117 C41.57859532 21.9793738 43.45538121 23.04074297 45.33178711 24.1027832 C52.37638865 28.08912309 59.43547195 32.04909728 66.5 36 C75.45219726 41.00659921 84.38993888 46.03784408 93.31396484 51.09448242 C98.37927629 53.96220784 103.45295062 56.81383658 108.5390625 59.64453125 C139.10517879 76.65776819 139.10517879 76.65776819 142 81 C142.65753425 87.90410959 142.65753425 87.90410959 140.5 91.5 C137.00837512 93.59497493 133.9253022 93.62577282 130 93 C126.63934298 91.64394541 123.59957013 89.86781913 120.5 88 C119.67757812 87.52304687 118.85515625 87.04609375 118.0078125 86.5546875 C115.99568866 85.38484806 113.99418107 84.20008336 112 83 C112 82.34 112 81.68 112 81 C111.11820068 80.72776611 110.23640137 80.45553223 109.32788086 80.17504883 C106.23004909 79.08122854 103.60468372 77.81649944 100.75390625 76.19921875 C99.76390625 75.64105469 98.77390625 75.08289063 97.75390625 74.5078125 C96.70074219 73.90710938 95.64757812 73.30640625 94.5625 72.6875 C93.45648438 72.06230469 92.35046875 71.43710937 91.2109375 70.79296875 C87.80469637 68.86651995 84.40228621 66.93342271 81 65 C78.10029393 63.35907377 75.19950453 61.7200768 72.29858398 60.08129883 C70.42140468 59.0206262 68.54461879 57.95925703 66.66821289 56.8972168 C59.62361043 52.91087639 52.56443815 48.95106468 45.5 45 C37.18082395 40.34515343 28.86593571 35.68287758 20.5625 31 C19.64597656 30.484375 18.72945313 29.96875 17.78515625 29.4375 C16.04218819 28.45323568 14.3055627 27.45763623 12.57617188 26.44970703 C10.79921076 25.44974541 8.98371267 24.5163431 7.14257812 23.64013672 C0.43377787 20.24662168 0.43377787 20.24662168 -0.78393555 16.74707031 C-0.98613678 14.13408712 -0.88023054 11.7322781 -0.625 9.125 C-0.57988281 8.24585938 -0.53476562 7.36671875 -0.48828125 6.4609375 C-0.37107447 4.30433278 -0.19169673 2.15126328 0 0 Z " fill="#DF3433" transform="translate(370,249)"/>
<path d="M0 0 C0 6.27 0 12.54 0 19 C-11.8185928 25.69312593 -23.64559587 32.37046987 -35.5 39 C-44.45276526 44.00690405 -53.38989005 49.04051772 -62.31616211 54.09448242 C-70.61068537 58.78759608 -78.92550763 63.44404065 -87.24633789 68.09033203 C-91.71749652 70.58957867 -96.18399622 73.09403951 -100.6171875 75.66015625 C-101.60706665 76.23286255 -101.60706665 76.23286255 -102.61694336 76.81713867 C-104.28750601 77.78784378 -105.95448201 78.7647146 -107.62109375 79.7421875 C-110 81 -110 81 -112 81 C-112 81.66 -112 82.32 -112 83 C-114.81709302 84.69530566 -117.65584386 86.35056775 -120.5 88 C-121.29148437 88.47695313 -122.08296875 88.95390625 -122.8984375 89.4453125 C-128.24788701 92.51466877 -131.8256899 93.70408799 -138 93 C-140.5 91.5 -140.5 91.5 -142 89 C-142.77403846 83.58173077 -142.77403846 83.58173077 -142 81 C-137.92063229 75.86924885 -132.42806223 73.16691465 -126.75 70.0625 C-125.2350293 69.22041992 -125.2350293 69.22041992 -123.68945312 68.36132812 C-121.54804281 67.17136289 -119.40476595 65.98475126 -117.25976562 64.80126953 C-111.99327978 61.89113378 -106.74809681 58.94312284 -101.5 56 C-99.39585323 54.82288111 -97.2916866 53.64579771 -95.1875 52.46875 C-89.28250801 49.16195449 -83.38956531 45.8341754 -77.5 42.5 C-69.51221966 37.97799212 -61.51121139 33.48036476 -53.5 29 C-45.3016812 24.41482333 -37.11356643 19.81224266 -28.9375 15.1875 C-27.99366455 14.65423096 -27.0498291 14.12096191 -26.07739258 13.5715332 C-21.73893821 11.11946272 -17.40411425 8.66150198 -13.078125 6.1875 C-12.33054932 5.76186768 -11.58297363 5.33623535 -10.81274414 4.89770508 C-9.4375276 4.11459786 -8.0641829 3.32819039 -6.69311523 2.5378418 C-2.22547511 0 -2.22547511 0 0 0 Z " fill="#DF3433" transform="translate(142,249)"/>
<path d="M0 0 C2.96858157 2.20740681 3.82865791 3.48597373 5 7 C5.08266486 8.91906917 5.10740663 10.84089474 5.09765625 12.76171875 C5.09443359 13.87998047 5.09121094 14.99824219 5.08789062 16.15039062 C5.07532227 17.90125977 5.07532227 17.90125977 5.0625 19.6875 C5.05798828 20.86634766 5.05347656 22.04519531 5.04882812 23.25976562 C5.03703273 26.17322789 5.0205727 29.08658863 5 32 C6.75376953 31.94779297 6.75376953 31.94779297 8.54296875 31.89453125 C10.09113141 31.86638284 11.63930968 31.83908381 13.1875 31.8125 C13.95642578 31.78736328 14.72535156 31.76222656 15.51757812 31.73632812 C20.21693236 31.67582142 23.15117047 32.00646592 27 35 C29 37 29 37 29.375 40.875 C29.29630146 43.97234974 29.1230443 44.82861687 27.25 47.4375 C20.65124633 52.01996782 12.95330155 50 5 50 C5 66.83 5 83.66 5 101 C1 100 1 100 -1 99 C-5.05142119 98.74139865 -6.54337669 98.69558446 -10 101 C-10.99 101 -11.98 101 -13 101 C-13 84.17 -13 67.34 -13 50 C-18.28 50 -23.56 50 -29 50 C-35.47321429 47.41071429 -35.47321429 47.41071429 -37 45 C-37.77333333 38.04 -37.77333333 38.04 -35.1875 34.5625 C-32.11202132 32.36572952 -29.67020939 31.87466008 -25.98828125 31.90234375 C-24.85229492 31.90717773 -24.85229492 31.90717773 -23.69335938 31.91210938 C-22.90767578 31.92048828 -22.12199219 31.92886719 -21.3125 31.9375 C-20.51521484 31.94201172 -19.71792969 31.94652344 -18.89648438 31.95117188 C-16.93095743 31.9629415 -14.96546915 31.98087652 -13 32 C-13.01047363 31.26885986 -13.02094727 30.53771973 -13.03173828 29.78442383 C-13.07340289 26.46048441 -13.09935956 23.13660005 -13.125 19.8125 C-13.14175781 18.66201172 -13.15851563 17.51152344 -13.17578125 16.32617188 C-13.18222656 15.21435547 -13.18867188 14.10253906 -13.1953125 12.95703125 C-13.20578613 11.93585205 -13.21625977 10.91467285 -13.22705078 9.86254883 C-12.98504135 6.8114084 -12.41353455 4.70932349 -11 2 C-7.32807887 -0.44794742 -4.26893972 -0.71435887 0 0 Z " fill="#924530" transform="translate(260,4)"/>
<path d="M0 0 C11.22 0 22.44 0 34 0 C34 17.82 34 35.64 34 54 C22.78 54 11.56 54 0 54 C0 36.18 0 18.36 0 0 Z " fill="#924630" transform="translate(449,454)"/>
<path d="M0 0 C10.56 0 21.12 0 32 0 C32 17.82 32 35.64 32 54 C21.44 54 10.88 54 0 54 C0 36.18 0 18.36 0 0 Z " fill="#924630" transform="translate(109,454)"/>
<path d="M0 0 C3.9375 0.4375 3.9375 0.4375 5.875 1.75 C7.82236636 4.84287598 8.07533571 7.54888453 8.13037109 11.10498047 C8.15446548 12.52192703 8.15446548 12.52192703 8.17904663 13.96749878 C8.22356733 18.2773153 8.2645429 22.58698005 8.28759766 26.89697266 C8.30417387 29.17051416 8.3314855 31.44400321 8.36962891 33.71728516 C8.4243571 36.996694 8.44626396 40.2748837 8.4609375 43.5546875 C8.48360687 44.56941132 8.50627625 45.58413513 8.52963257 46.62960815 C8.5154501 51.36169312 8.49353848 53.68048375 5.62744141 57.58251953 C2.10079386 60.01449158 0.13726846 60.12473484 -4.0625 59.4375 C-6.59810047 57.44138296 -7.89198968 56.23989427 -8.57043457 53.04724121 C-8.57361694 52.16217896 -8.57679932 51.2771167 -8.58007812 50.36523438 C-8.59268677 49.35738892 -8.60529541 48.34954346 -8.61828613 47.31115723 C-8.61018921 46.22878784 -8.60209229 45.14641846 -8.59375 44.03125 C-8.5975769 42.91439819 -8.60140381 41.79754639 -8.60534668 40.64685059 C-8.60806756 38.28653054 -8.6006942 35.92618043 -8.58398438 33.56591797 C-8.56257884 29.95081425 -8.58378178 26.33769807 -8.609375 22.72265625 C-8.60673176 20.42968311 -8.60160686 18.1367112 -8.59375 15.84375 C-8.60184692 14.76138062 -8.60994385 13.67901123 -8.61828613 12.56384277 C-8.60567749 11.55599731 -8.59306885 10.54815186 -8.58007812 9.50976562 C-8.57689575 8.62470337 -8.57371338 7.73964111 -8.57043457 6.82775879 C-7.60789916 2.29822121 -4.57510572 -0.13222849 0 0 Z " fill="#FFFEFE" transform="translate(86.0625,347.5625)"/>
<path d="M0 0 C3.04297466 0.61536964 4.14542421 2.06516627 6.10546875 4.42578125 C6.62013245 6.81604004 6.62013245 6.81604004 6.63891602 9.49804688 C6.65475235 10.50589233 6.67058868 11.51373779 6.68690491 12.55212402 C6.6794651 14.1756781 6.6794651 14.1756781 6.671875 15.83203125 C6.67807358 16.94888306 6.68427216 18.06573486 6.69065857 19.21643066 C6.69775959 21.57673267 6.69457789 23.93708473 6.68188477 26.29736328 C6.66801885 29.91271911 6.70208963 33.52548782 6.74023438 37.140625 C6.74118554 39.43359438 6.73932689 41.72656702 6.734375 44.01953125 C6.74763321 45.10190063 6.76089142 46.18427002 6.77455139 47.29943848 C6.68165403 54.76974469 6.68165403 54.76974469 3.75366211 58.10351562 C0.46918435 59.7434835 -1.27244711 60.10492203 -4.89453125 59.42578125 C-7.82139196 57.37244934 -9.62963133 55.74715939 -10.3503418 52.15209961 C-10.52420546 49.29386618 -10.53483087 46.47648301 -10.48828125 43.61328125 C-10.48832153 42.5668042 -10.48836182 41.52032715 -10.48840332 40.44213867 C-10.48305015 38.23317447 -10.46547629 36.02421063 -10.43652344 33.81542969 C-10.39467714 30.43755786 -10.39545572 27.06168105 -10.40234375 23.68359375 C-10.39185061 21.53514242 -10.37891184 19.38670135 -10.36328125 17.23828125 C-10.36307983 16.22983154 -10.36287842 15.22138184 -10.3626709 14.18237305 C-10.21919795 5.66625477 -9.20404286 0.50078282 0 0 Z " fill="#FFFEFE" transform="translate(427.89453125,347.57421875)"/>
</svg>
